# xmcd
#
# Track frame offsets: 
#        150
#        26048
#        43220
#        72732
#        94623
#        123427
#        146596
#        167707
#        180922
#        199619
#        219324
#        248748
#        265158
#        282249
#        297776
#        312886
#        331624
#
# Disc length: 4798 seconds
#
# Revision: 1
# Processed by: cddbd v1.5.2PL0 Copyright (c) Steve Scherf et al.
# Submitted via: ExactAudioCopy v1.3
#
DISCID=f812bc11
DTITLE=Various Artist - Akella Presents - Blues-Rock - vol.32  CD2
DYEAR=2013
DGENRE=Rock
TTITLE0=GUITAR PETE - Do You Hear The Rain
TTITLE1=JIMI BARBIANI BAND - Party Angel
TTITLE2=LEE SMALL - The Captains Quarters
TTITLE3=JIM SUHLER and MONKEY BEAT - Up To My Neck In You
TTITLE4=ROB ORLEMANS - Go Down
TTITLE5=REBEL PRIDE - The Hard Way
TTITLE6=KRIS POHLMANN BAND - Nowhere to Run, Nowhere to Hide
TTITLE7=DAVE STEFFEN BAND - All Night Long
TTITLE8=ZZ TOP - Heartache In Blue
TTITLE9=NIGHT HORSE - Worried Life Blues
TTITLE10=HANK DAVISON BAND - Gamblers Roll
TTITLE11=BACHMAN and TURNER - Rollin' Along
TTITLE12=BART WALKER BAND - Left Turn
TTITLE13=SALTY DOG - Ring My Bell
TTITLE14=SAVOY BROWN - That's What Love Will Do
TTITLE15=The POUNDERS - Hard-Headed Woman
TTITLE16=ALVIN LEE - I Want You (She's So Heavy)
EXTD=
EXTT0=
EXTT1=
EXTT2=
EXTT3=
EXTT4=
EXTT5=
EXTT6=
EXTT7=
EXTT8=
EXTT9=
EXTT10=
EXTT11=
EXTT12=
EXTT13=
EXTT14=
EXTT15=
EXTT16=
PLAYORDER=
